HIERARCHY
ROOT Joint1
{
	OFFSET 0.000000 0.000000 0.000000
	CHANNELS 6 Xposition Yposition Zposition Xrotation Yrotation Zrotation
	JOINT Joint2
	{
		OFFSET -0.000000 0.000000 1.456275
		CHANNELS 6 Xposition Yposition Zposition Xrotation Yrotation Zrotation
		JOINT Joint3
		{
			OFFSET -0.000000 0.000002 1.471446
			CHANNELS 6 Xposition Yposition Zposition Xrotation Yrotation Zrotation
			JOINT Joint4
			{
				OFFSET 0.625745 0.000000 0.917755
				CHANNELS 6 Xposition Yposition Zposition Xrotation Yrotation Zrotation
				JOINT Joint5
				{
					OFFSET -0.629534 0.000001 0.940221
					CHANNELS 6 Xposition Yposition Zposition Xrotation Yrotation Zrotation
					JOINT Joint6
					{
						OFFSET -0.000001 0.113772 1.960660
						CHANNELS 6 Xposition Yposition Zposition Xrotation Yrotation Zrotation
						JOINT Joint7
						{
							OFFSET -0.669733 -0.113771 0.388340
							CHANNELS 6 Xposition Yposition Zposition Xrotation Yrotation Zrotation
							End Site
							{
								OFFSET 0.005509 0.005509 0.438980
							}
						}
					}
				}
			}
		}
	}
}
MOTION
Frames: 9
Frame Time: 0.041667
0.000000 0.000000 0.000000 -0.000000 1.019410 -0.000318 -0.000000 -0.000000 1.456275 0.000000 -44.967179 -0.000000 -0.000000 0.000002 1.471446 0.000000 -1.133462 -0.033851 0.625745 0.000000 0.917755 0.000004 135.007104 -0.000001 -0.629534 0.000001 0.940221 -0.000000 1.709736 -0.028287 -0.000001 0.113772 1.960660 -88.329960 89.992831 -0.016792 -0.669733 -0.113771 0.388340 -0.705022 3.566198 134.955741 
0.000000 0.000000 0.000000 -0.000000 1.019410 0.017280 -0.000000 0.000000 1.456275 -0.000000 -44.923653 0.000000 -0.000000 0.000002 1.471445 0.000000 -1.133459 -0.049715 0.625745 0.000000 0.917755 0.000004 134.962817 -0.000001 -0.629534 0.000001 0.940221 0.000000 1.709737 -0.063062 -0.000000 0.113772 1.960661 -88.299859 90.048039 0.002498 -0.669733 -0.113771 0.388340 -0.704169 3.566197 134.907684 
0.000000 0.000000 0.000000 -0.000000 1.019410 0.047789 -0.000000 0.000000 1.456275 0.000000 -44.848200 -0.000000 -0.000000 0.000002 1.471446 -0.000000 -1.133463 -0.077218 0.625744 0.000000 0.917755 0.000004 134.886004 -0.000001 -0.629534 0.000001 0.940221 0.000000 1.709736 -0.123352 -0.000001 0.113772 1.960660 -88.302550 90.143757 0.000904 -0.669733 -0.113771 0.388340 -0.702689 3.566194 134.824383 
0.000000 0.000000 0.000000 -0.000000 1.019410 0.092175 -0.000000 -0.000000 1.456275 -0.000000 -44.738443 0.000000 -0.000000 0.000002 1.471446 0.000000 -1.133461 -0.117230 0.625745 0.000000 0.917755 0.000004 134.774263 -0.000001 -0.629534 0.000001 0.940221 0.000000 1.709736 -0.211064 -0.000001 0.113772 1.960660 -88.303247 90.283011 0.000473 -0.669733 -0.113771 0.388340 -0.700535 3.566184 134.703160 
0.000000 0.000000 0.000000 -0.000000 1.019410 0.151403 -0.000000 0.000000 1.456275 -0.000000 -44.591962 0.000000 -0.000000 0.000002 1.471446 -0.000000 -1.133464 -0.170621 0.625745 0.000000 0.917755 0.000004 134.625160 -0.000001 -0.629533 0.000001 0.940221 0.000000 1.709736 -0.328105 -0.000000 0.113772 1.960660 -88.303472 90.468840 0.000254 -0.669733 -0.113771 0.388339 -0.697663 3.566165 134.541408 
0.000000 0.000000 0.000000 -0.000000 1.019410 0.226438 -0.000000 0.000000 1.456275 -0.000000 -44.406390 0.000000 -0.000000 0.000002 1.471446 -0.000000 -1.133460 -0.238262 0.625745 0.000000 0.917755 0.000004 134.436264 -0.000001 -0.629534 0.000001 0.940221 0.000000 1.709736 -0.476383 -0.000000 0.113772 1.960661 -88.303623 90.704250 0.000172 -0.669733 -0.113771 0.388341 -0.694023 3.566129 134.336502 
0.000000 0.000000 0.000000 -0.000000 1.019410 0.318245 -0.000000 -0.000000 1.456275 -0.000000 -44.179347 -0.000000 -0.000000 0.000002 1.471446 -0.000000 -1.133456 -0.321023 0.625744 0.000000 0.917755 0.000004 134.205130 -0.000001 -0.629534 0.000001 0.940221 0.000000 1.709736 -0.657805 -0.000000 0.113772 1.960661 -88.303705 90.992286 0.000124 -0.669733 -0.113771 0.388340 -0.689570 3.566069 134.085793 
0.000000 0.000000 0.000000 -0.000000 1.019410 0.427790 -0.000000 -0.000000 1.456275 0.000000 -43.908438 -0.000000 -0.000000 0.000002 1.471446 -0.000000 -1.133464 -0.419773 0.625745 0.000000 0.917755 0.000004 133.929355 -0.000001 -0.629534 0.000001 0.940221 0.000000 1.709736 -0.874279 -0.000000 0.113772 1.960661 -88.303746 91.335974 0.000092 -0.669733 -0.113771 0.388339 -0.684258 3.565970 133.786658 
0.000000 0.000000 0.000000 -0.000000 1.019410 0.556037 -0.000000 -0.000000 1.456275 -0.000000 -43.591268 0.000000 -0.000000 0.000002 1.471446 -0.000000 -1.133459 -0.535384 0.625745 0.000000 0.917755 0.000004 133.606491 -0.000001 -0.629533 0.000001 0.940221 0.000000 1.709736 -1.127711 -0.000001 0.113772 1.960660 -88.303773 91.738333 0.000076 -0.669733 -0.113771 0.388339 -0.678039 3.565819 133.436420 
